<?xml version="1.0" encoding="utf-8"?>
<!-- Generator: Adobe Illustrator 23.0.2, SVG Export Plug-In . SVG Version: 6.00 Build 0)  -->
<svg version="1.1" id="Capa_1" xmlns="http://www.w3.org/2000/svg" xmlns:xlink="http://www.w3.org/1999/xlink" x="0px" y="0px"
	 viewBox="0 0 196.3 198.9" style="enable-background:new 0 0 196.3 198.9;" xml:space="preserve">
<style type="text/css">
	.st0{fill:#E99401;}
	.st1{fill-rule:evenodd;clip-rule:evenodd;fill:#FFFFFF;}
	.st2{fill:#FFFFFF;}
</style>
<circle class="st0" cx="98.2" cy="99.4" r="97.7"/>
<g>
	<path class="st1" d="M80.9,93.7c-2.3-1.2-6.1,1.4-8.6,7.1c-3,6.7-1.7,15.5-4.8,21.8c-2.7,5.4-13.8,7.1-19.3,18.2
		c-6.2,12.6-3.4,22.7,13.9,31.3s25.6,2.5,31-8.2c4.9-9.9,0.2-16.3,3.9-23.7c3.9-7.8,9.8-9.2,12.7-13.2c3.5-4.7,1.8-8.4-0.7-8.7
		c-2.2-0.2-3.8,5.1-10.4,2c-3.2-1.5-4-5.6-0.4-12.8c3.6-7.3-3.3-11.7-7.3-4.8c-1.2,2-3.9,5.8-8.3,3.6
		C77.8,103.8,83.8,95.2,80.9,93.7z"/>
	<polygon class="st1" points="85.3,113.3 93.4,117.4 126,48.6 120.7,46 	"/>
	<path class="st1" d="M134.9,44.4c1.8-4.6,4.2-8.9,7.1-12.8c4.5-5.8,4.6-10.2-3-3.7l-18.4,15.6c-0.7,0.6-1.4,0.7-1.1,2.8
		c0.2,0.7,0.1,1.5-0.1,2.2l5.4,2.7c0.4-0.9,2.7-2.8,5.4-3.4C131.8,47.3,134.3,45.8,134.9,44.4z"/>
	
		<rect x="136.2" y="28.5" transform="matrix(0.7627 -0.6468 0.6468 0.7627 13.0351 95.4439)" class="st2" width="0.8" height="2.9"/>
	<path class="st1" d="M134.9,29.9l-0.6-0.8c-0.4-0.9,1-2.1,1.9-1.6l0.6,0.8C136.9,29,135.5,30.2,134.9,29.9z"/>
	<rect x="133.2" y="31" transform="matrix(0.7628 -0.6466 0.6466 0.7628 10.6891 94.0987)" class="st2" width="0.8" height="2.9"/>
	<path class="st1" d="M131.9,32.4l-0.6-0.8c-0.4-0.9,1-2.1,1.9-1.6l0.7,0.8C133.9,31.5,132.5,32.7,131.9,32.4z"/>
	<rect x="130.2" y="33.6" transform="matrix(0.7629 -0.6465 0.6465 0.7629 8.3431 92.7552)" class="st2" width="0.8" height="2.9"/>
	<path class="st1" d="M128.9,35l-0.6-0.8c-0.4-0.9,1-2.1,1.8-1.6l0.6,0.8C130.9,34,129.5,35.2,128.9,35z"/>
	<rect x="127.2" y="36.1" transform="matrix(0.7626 -0.6469 0.6469 0.7626 6.0418 91.4885)" class="st2" width="0.8" height="2.9"/>
	<path class="st1" d="M126,37.5l-0.6-0.8c-0.4-0.9,1-2.1,1.9-1.6l0.6,0.8C128,36.5,126.6,37.7,126,37.5z"/>
	<rect x="124.3" y="38.6" transform="matrix(0.7628 -0.6466 0.6466 0.7628 3.6896 90.1322)" class="st2" width="0.8" height="2.9"/>
	<path class="st1" d="M123,40l-0.6-0.8c-0.4-0.9,1-2.1,1.9-1.6l0.6,0.8C125,39.1,123.6,40.2,123,40z"/>
	<rect x="121.3" y="41.1" transform="matrix(0.7628 -0.6466 0.6466 0.7628 1.3543 88.8044)" class="st2" width="0.8" height="2.9"/>
	<path class="st1" d="M120,42.5l-0.6-0.8c-0.4-0.9,1-2.1,1.8-1.6l0.6,0.8C122,41.6,120.6,42.8,120,42.5z"/>
</g>
</svg>
